# xmcd
#
# Track frame offsets:
#	150
#	16242
#	30646
#	51238
#	65278
#	77732
#	96529
#	114444
#	131241
#	146288
#	159130
#
# Disc length: 2311 seconds
#
# Revision: 1
# Processed by: cddbd v1.5.1PL0 Copyright (c) Steve Scherf et al.
# Submitted via: audiograbber 1.83.01
#
DISCID=8a09050b
DTITLE=Paquette, Jenny - See What You Do
DYEAR=2000
DGENRE=Country
TTITLE0=Hug, Kiss and Smile
TTITLE1=Everywhere I Am
TTITLE2=See What You Do
TTITLE3=More To Love Than This
TTITLE4=One Tear Too Many
TTITLE5=In This Very Room
TTITLE6=Worlds Apart
TTITLE7=Who Knew
TTITLE8=All the Things Never Done
TTITLE9=Face Like That
TTITLE10=You Could Be Mine
EXTD=
EXTT0=
EXTT1=
EXTT2=
EXTT3=
EXTT4=
EXTT5=
EXTT6=
EXTT7=
EXTT8=
EXTT9=
EXTT10=
PLAYORDER=
